<svg width="23" height="32" viewBox="0 0 23 32" fill="none" xmlns="http://www.w3.org/2000/svg">
<path d="M21.203 29.9445H20.6401C20.6401 29.9385 20.6374 29.9325 20.6362 29.9269L20.6208 29.858C20.6109 29.8127 20.6003 29.7678 20.5892 29.7233C20.5845 29.7023 20.5793 29.6814 20.5742 29.6604C20.5596 29.6017 20.5442 29.5429 20.5284 29.4841L20.5237 29.4673C20.5063 29.4037 20.4882 29.3403 20.4692 29.2772L20.4503 29.2162C20.4372 29.1728 20.4234 29.1297 20.4108 29.0867C20.4033 29.0631 20.3954 29.0399 20.3879 29.0167C20.3741 28.9752 20.3599 28.9336 20.3453 28.8925C20.3378 28.8708 20.3299 28.8487 20.3224 28.8273C20.3039 28.7757 20.285 28.7244 20.2655 28.6735C20.2612 28.6627 20.2576 28.6522 20.2533 28.6413C20.2304 28.5815 20.2063 28.522 20.1818 28.4625C20.1731 28.4408 20.1641 28.4194 20.155 28.3981C20.1384 28.3607 20.1218 28.3195 20.1049 28.2806L20.0729 28.2083C20.0563 28.1709 20.0393 28.1335 20.022 28.0961C20.0113 28.0729 20.0002 28.0493 19.9892 28.0261C19.9691 27.9831 19.9497 27.9404 19.9272 27.8981C19.9189 27.882 19.9114 27.8655 19.9031 27.8491C19.8751 27.7933 19.8463 27.7368 19.8171 27.6829L19.7776 27.6129L19.7219 27.5115L19.6785 27.4367C19.6604 27.4052 19.6422 27.3738 19.6237 27.3423C19.609 27.3169 19.594 27.2914 19.579 27.2675C19.5585 27.2334 19.5396 27.2001 19.5171 27.1665L19.4602 27.0751C19.4334 27.0332 19.4065 26.9909 19.3789 26.9494C19.3615 26.9232 19.3442 26.8974 19.3264 26.8715C19.3086 26.8457 19.2893 26.8162 19.2704 26.7888C19.2514 26.7615 19.2309 26.7342 19.2135 26.7073C19.1961 26.6803 19.1772 26.656 19.1586 26.6324C19.1401 26.6088 19.1192 26.5774 19.099 26.5501L19.0434 26.4752C19.0039 26.4255 18.9676 26.3757 18.9289 26.3255L18.8748 26.257C18.8519 26.2282 18.8282 26.1998 18.8049 26.1713L18.7528 26.1085C18.7288 26.0796 18.7043 26.0512 18.6798 26.0224L18.6285 25.9633L18.5519 25.8764L18.5065 25.8263C18.4122 25.7226 18.3155 25.6205 18.2164 25.5209L18.1729 25.4771L18.0822 25.3884L18.0375 25.3458C18.006 25.3154 17.9744 25.2855 17.9424 25.2559L17.9096 25.226C17.7979 25.1231 17.6831 25.0228 17.5662 24.9266L17.5342 24.9C17.4982 24.8701 17.4619 24.8405 17.4253 24.8113L17.389 24.7821C17.3495 24.7522 17.3136 24.7226 17.2753 24.6931L17.2559 24.6785C17.1269 24.5797 16.9946 24.4835 16.8612 24.3911L16.8426 24.378C16.8004 24.3491 16.7582 24.3207 16.7155 24.2926L16.6875 24.2743C16.6441 24.2455 16.6003 24.2174 16.5564 24.1893L16.5489 24.1849C16.4037 24.0928 16.2557 24.0046 16.1049 23.9203L16.0989 23.9165C16.0512 23.89 16.0034 23.8641 15.9556 23.8383L15.9347 23.8271C15.6805 23.6911 15.4194 23.5664 15.1515 23.4528L15.135 23.4457C15.0643 23.4158 14.9932 23.387 14.9214 23.3585H16.3342C16.5643 23.3585 16.7511 23.1074 16.7511 22.7972C16.7511 22.4869 16.5643 22.2358 16.3342 22.2358H15.9134C15.9395 22.1729 15.9683 22.1018 15.9995 22.0217C16.3974 21.7867 17.0977 21.286 17.7924 20.3661L17.7979 20.359C17.8506 20.2901 17.9023 20.2189 17.9531 20.1453L17.9633 20.1307C18.0139 20.0584 18.0644 19.984 18.1141 19.9061L18.1276 19.8855C18.1512 19.8481 18.1749 19.8107 18.1986 19.7733C18.1986 19.7733 18.1986 19.7703 18.2014 19.7684C18.2258 19.731 18.2499 19.6898 18.274 19.6498L18.2894 19.6239C18.3099 19.5895 18.3308 19.5543 18.351 19.5188C18.3549 19.5124 18.3589 19.5061 18.3624 19.4993C18.3857 19.4589 18.409 19.4177 18.4319 19.3762L18.4477 19.3474C18.4666 19.3129 18.4852 19.2781 18.5037 19.243C18.5093 19.2332 18.5148 19.2231 18.5199 19.213C18.542 19.1707 18.5641 19.1281 18.5863 19.0847L18.6016 19.0543C18.619 19.0192 18.6368 18.9832 18.6541 18.9473L18.6731 18.9099C18.6944 18.8657 18.7153 18.8208 18.7363 18.7755L18.7493 18.7467C18.7667 18.7093 18.7836 18.6719 18.8006 18.6344L18.8207 18.5895C18.8405 18.5442 18.8602 18.4986 18.8792 18.4526C18.8827 18.4443 18.8863 18.4357 18.8894 18.4275C18.9072 18.3852 18.9246 18.3422 18.9419 18.2987L18.9617 18.2493C18.9778 18.2082 18.994 18.1666 19.0098 18.1251L19.0217 18.0937C19.0402 18.0443 19.0584 17.9937 19.0765 17.944L19.0955 17.8908C19.1097 17.8512 19.1235 17.8107 19.1373 17.7703C19.1425 17.7553 19.1476 17.7404 19.1523 17.7254C19.1697 17.6738 19.1871 17.621 19.204 17.5682C19.2096 17.5499 19.2155 17.5308 19.221 17.5136L19.2605 17.3905C19.2656 17.3725 19.2711 17.353 19.2763 17.3369C19.2925 17.2827 19.3086 17.2273 19.324 17.1715C19.3292 17.1539 19.3339 17.136 19.3386 17.118C19.3505 17.075 19.3623 17.0319 19.3738 16.9881C19.3789 16.9683 19.384 16.9485 19.3896 16.9286C19.4042 16.871 19.4188 16.813 19.433 16.7542L19.4448 16.7052C19.4559 16.6584 19.4669 16.6113 19.4776 16.5638L19.4918 16.5001C19.5052 16.4391 19.5186 16.3781 19.5313 16.316C19.534 16.304 19.5364 16.2917 19.5388 16.2786C19.5498 16.2251 19.5605 16.1708 19.5708 16.1165C19.5751 16.0945 19.579 16.0724 19.5834 16.0503C19.5937 15.9945 19.6035 15.938 19.6134 15.8823C19.6154 15.8703 19.6177 15.8587 19.6197 15.8471C19.6308 15.7812 19.6415 15.7148 19.6521 15.648C19.6556 15.6255 19.6592 15.6031 19.6623 15.5802C19.6706 15.526 19.6785 15.4713 19.6864 15.4159L19.6935 15.3651C19.703 15.2962 19.7121 15.227 19.7208 15.1566C19.7235 15.1345 19.7259 15.1124 19.7287 15.09C19.7355 15.0341 19.7418 14.978 19.7476 14.9216C19.75 14.9014 19.7523 14.8815 19.7543 14.8613C19.7619 14.789 19.7691 14.716 19.7756 14.6424C19.7756 14.6218 19.7792 14.6012 19.7808 14.5803C19.7859 14.5211 19.791 14.4616 19.7954 14.4017C19.7954 14.3797 19.7989 14.3576 19.8005 14.3355C19.806 14.2592 19.8112 14.1823 19.8159 14.105C19.8159 14.0874 19.8159 14.0675 19.8187 14.0518C19.8222 13.9875 19.8258 13.9227 19.8285 13.8576C19.8285 13.834 19.8285 13.8104 19.8317 13.7869C19.8348 13.7064 19.838 13.6256 19.8404 13.5436C19.8404 13.5324 19.8404 13.5208 19.8404 13.5092C19.8425 13.4363 19.8441 13.3627 19.8451 13.2884C19.8451 13.264 19.8451 13.2397 19.8451 13.2154C19.8451 13.1356 19.8451 13.0552 19.8451 12.9744V12.9557C19.8451 12.8696 19.8451 12.7824 19.8451 12.6937V12.6189C19.8451 12.544 19.8419 12.4654 19.84 12.3876V12.3453C19.8372 12.2555 19.8337 12.1645 19.8301 12.0732C19.8301 12.0496 19.8277 12.0257 19.8269 12.0021C19.8235 11.9253 19.8196 11.8479 19.8151 11.7701C19.8151 11.751 19.8151 11.7326 19.8119 11.7121C19.8064 11.6185 19.8004 11.5242 19.7938 11.4291L19.7891 11.3629C19.7831 11.2835 19.7772 11.2038 19.7705 11.1234C19.7705 11.1002 19.7669 11.077 19.765 11.0538C19.7567 10.9565 19.7476 10.858 19.7381 10.7592C19.7381 10.7405 19.7342 10.7218 19.7326 10.7027C19.7243 10.6185 19.7152 10.5336 19.7062 10.4479C19.7034 10.422 19.7006 10.3966 19.6975 10.3708C19.6864 10.269 19.6746 10.1668 19.6619 10.0631C19.6619 10.0504 19.6584 10.0377 19.6568 10.0257C19.6455 9.9329 19.6335 9.83959 19.6209 9.74578C19.6169 9.71809 19.6134 9.6904 19.6094 9.6627C19.5947 9.55642 19.5796 9.44926 19.564 9.34122C17.985 -1.31499 6.79548 0.414388 6.79548 0.414388L7.15391 2.70401L0.386719 9.48157L0.682386 12.0987L3.24589 13.5956C3.36017 13.3202 3.50689 13.058 3.68327 12.8138C5.33727 11.0051 8.54619 9.58523 9.46477 9.2907C9.64872 9.23195 9.75334 9.20238 9.75334 9.20238C5.35938 14.5937 5.85913 20.7703 6.05493 22.2425C5.85123 22.2799 5.69373 22.5131 5.69373 22.7975C5.69373 23.1074 5.88045 23.3589 6.11059 23.3589H7.5234C5.17371 24.2914 3.30857 26.0673 2.3352 28.2989C2.33406 28.302 2.33274 28.305 2.33126 28.3079C2.25941 28.4736 2.19257 28.6416 2.13072 28.812C2.13083 28.8137 2.13083 28.8155 2.13072 28.8172C2.11414 28.8636 2.09796 28.9101 2.08217 28.9568C2.07625 28.9737 2.07033 28.9905 2.0648 29.0077C2.05059 29.0496 2.03743 29.0919 2.02532 29.1346C2.01822 29.1563 2.01151 29.1784 2.0048 29.2001C1.99216 29.2401 1.97993 29.2806 1.96809 29.321L1.94677 29.3958C1.93572 29.4332 1.92467 29.4733 1.9144 29.5122C1.9069 29.5399 1.89979 29.5672 1.89269 29.5949C1.88322 29.6323 1.87335 29.6698 1.86427 29.7072C1.85519 29.7446 1.8465 29.782 1.83782 29.8217C1.82913 29.8614 1.81808 29.9078 1.80861 29.9512H1.2453C1.13698 29.9489 1.02927 29.9672 0.928497 30.0049C0.827724 30.0427 0.735919 30.0991 0.658466 30.1709C0.581012 30.2428 0.519469 30.3286 0.477455 30.4232C0.435441 30.5179 0.4138 30.6196 0.4138 30.7223C0.4138 30.825 0.435441 30.9267 0.477455 31.0214C0.519469 31.1161 0.581012 31.2019 0.658466 31.2737C0.735919 31.3455 0.827724 31.402 0.928497 31.4397C1.02927 31.4774 1.13698 31.4957 1.2453 31.4935H21.2101C21.3185 31.4957 21.4262 31.4774 21.527 31.4397C21.6277 31.402 21.7195 31.3455 21.797 31.2737C21.8744 31.2019 21.936 31.1161 21.978 31.0214C22.02 30.9267 22.0416 30.825 22.0416 30.7223C22.0416 30.6196 22.02 30.5179 21.978 30.4232C21.936 30.3286 21.8744 30.2428 21.797 30.1709C21.7195 30.0991 21.6277 30.0427 21.527 30.0049C21.4262 29.9672 21.3185 29.9489 21.2101 29.9512L21.203 29.9445Z" fill="#595653"/>
</svg>
