<svg width="23" height="32" viewBox="0 0 23 32" fill="none" xmlns="http://www.w3.org/2000/svg">
<path d="M21.5917 29.9445H21.0288C21.0288 29.9385 21.026 29.9325 21.0249 29.9269L21.0095 29.858C20.9996 29.8127 20.9889 29.7678 20.9779 29.7233C20.9731 29.7023 20.968 29.6814 20.9629 29.6604C20.9483 29.6017 20.9329 29.5429 20.9171 29.4841L20.9124 29.4673C20.895 29.4037 20.8768 29.3403 20.8579 29.2772L20.8389 29.2162C20.8259 29.1728 20.8121 29.1297 20.7995 29.0867C20.792 29.0631 20.7841 29.0399 20.7766 29.0167C20.7627 28.9752 20.7485 28.9336 20.7339 28.8925C20.7264 28.8708 20.7185 28.8487 20.711 28.8273C20.6926 28.7757 20.6737 28.7244 20.6542 28.6735C20.6498 28.6627 20.6463 28.6522 20.6419 28.6413C20.6191 28.5815 20.595 28.522 20.5705 28.4625C20.5618 28.4408 20.5527 28.4194 20.5437 28.3981C20.5271 28.3607 20.5105 28.3195 20.4935 28.2806L20.4616 28.2083C20.445 28.1709 20.428 28.1335 20.4106 28.0961C20.4 28.0729 20.3889 28.0493 20.3779 28.0261C20.3577 27.9831 20.3384 27.9404 20.3159 27.8981C20.3076 27.882 20.3001 27.8655 20.2918 27.8491C20.2638 27.7933 20.235 27.7368 20.2057 27.6829L20.1663 27.6129L20.1106 27.5115L20.0672 27.4367C20.049 27.4052 20.0309 27.3738 20.0123 27.3423C19.9977 27.3169 19.9827 27.2914 19.9677 27.2675C19.9472 27.2334 19.9282 27.2001 19.9057 27.1665L19.8489 27.0751C19.8221 27.0332 19.7952 26.9909 19.7676 26.9494C19.7502 26.9232 19.7328 26.8974 19.7151 26.8715C19.6973 26.8457 19.678 26.8162 19.659 26.7888C19.6401 26.7615 19.6195 26.7342 19.6022 26.7073C19.5848 26.6803 19.5659 26.656 19.5473 26.6324C19.5288 26.6088 19.5078 26.5774 19.4877 26.5501L19.432 26.4752C19.3926 26.4255 19.3562 26.3757 19.3176 26.3255L19.2635 26.257C19.2406 26.2282 19.2169 26.1998 19.1936 26.1713L19.1415 26.1085C19.1174 26.0796 19.093 26.0512 19.0685 26.0224L19.0172 25.9633L18.9406 25.8764L18.8952 25.8263C18.8008 25.7226 18.7041 25.6205 18.605 25.5209L18.5616 25.4771L18.4708 25.3884L18.4262 25.3458C18.3946 25.3154 18.3631 25.2855 18.3311 25.2559L18.2983 25.226C18.1866 25.1231 18.0717 25.0228 17.9549 24.9266L17.9229 24.9C17.8869 24.8701 17.8505 24.8405 17.814 24.8113L17.7776 24.7821C17.7382 24.7522 17.7022 24.7226 17.664 24.6931L17.6446 24.6785C17.5155 24.5797 17.3833 24.4835 17.2499 24.3911L17.2313 24.378C17.1891 24.3491 17.1468 24.3207 17.1042 24.2926L17.0762 24.2743C17.0328 24.2455 16.9889 24.2174 16.9451 24.1893L16.9376 24.1849C16.7924 24.0928 16.6443 24.0046 16.4935 23.9203L16.4876 23.9165C16.4398 23.89 16.3921 23.8641 16.3443 23.8383L16.3234 23.8271C16.0692 23.6911 15.8081 23.5664 15.5402 23.4528L15.5236 23.4457C15.453 23.4158 15.3819 23.387 15.3101 23.3585H16.7229C16.953 23.3585 17.1397 23.1074 17.1397 22.7972C17.1397 22.4869 16.953 22.2358 16.7229 22.2358H16.3021C16.3281 22.1729 16.3569 22.1018 16.3881 22.0217C16.786 21.7867 17.4863 21.286 18.1811 20.3661L18.1866 20.359C18.2392 20.2901 18.291 20.2189 18.3417 20.1453L18.352 20.1307C18.4025 20.0584 18.4531 19.984 18.5028 19.9061L18.5162 19.8855C18.5399 19.8481 18.5636 19.8107 18.5873 19.7733C18.5873 19.7733 18.5873 19.7703 18.59 19.7684C18.6145 19.731 18.6386 19.6898 18.6627 19.6498L18.6781 19.6239C18.6986 19.5895 18.7195 19.5543 18.7396 19.5188C18.7436 19.5124 18.7475 19.5061 18.7511 19.4993C18.7744 19.4589 18.7977 19.4177 18.8206 19.3762L18.8364 19.3474C18.8553 19.3129 18.8739 19.2781 18.8924 19.243C18.8979 19.2332 18.9035 19.2231 18.9086 19.213C18.9307 19.1707 18.9528 19.1281 18.9749 19.0847L18.9903 19.0543C19.0077 19.0192 19.0254 18.9832 19.0428 18.9473L19.0618 18.9099C19.0831 18.8657 19.104 18.8208 19.1249 18.7755L19.138 18.7467C19.1553 18.7093 19.1723 18.6719 19.1893 18.6344L19.2094 18.5895C19.2291 18.5442 19.2489 18.4986 19.2678 18.4526C19.2714 18.4443 19.2749 18.4357 19.2781 18.4275C19.2959 18.3852 19.3132 18.3422 19.3306 18.2987L19.3503 18.2493C19.3665 18.2082 19.3827 18.1666 19.3985 18.1251L19.4103 18.0937C19.4289 18.0443 19.447 17.9937 19.4652 17.944L19.4842 17.8908C19.4984 17.8512 19.5122 17.8107 19.526 17.7703C19.5311 17.7553 19.5363 17.7404 19.541 17.7254C19.5584 17.6738 19.5757 17.621 19.5927 17.5682C19.5982 17.5499 19.6042 17.5308 19.6097 17.5136L19.6492 17.3905C19.6543 17.3725 19.6598 17.353 19.6649 17.3369C19.6811 17.2827 19.6973 17.2273 19.7127 17.1715C19.7178 17.1539 19.7226 17.136 19.7273 17.118C19.7392 17.075 19.751 17.0319 19.7624 16.9881C19.7676 16.9683 19.7727 16.9485 19.7782 16.9286C19.7928 16.871 19.8074 16.813 19.8217 16.7542L19.8335 16.7052C19.8446 16.6584 19.8556 16.6113 19.8663 16.5638L19.8805 16.5001C19.8939 16.4391 19.9073 16.3781 19.92 16.316C19.9227 16.304 19.9251 16.2917 19.9275 16.2786C19.9385 16.2251 19.9492 16.1708 19.9594 16.1165C19.9638 16.0945 19.9677 16.0724 19.9721 16.0503C19.9823 15.9945 19.9922 15.938 20.0021 15.8823C20.004 15.8703 20.0064 15.8587 20.0084 15.8471C20.0194 15.7812 20.0302 15.7148 20.0407 15.648C20.0443 15.6255 20.0479 15.6031 20.051 15.5802C20.0593 15.526 20.0672 15.4713 20.0751 15.4159L20.0822 15.3651C20.0917 15.2962 20.1007 15.227 20.1094 15.1566C20.1122 15.1345 20.1146 15.1124 20.1173 15.09C20.1242 15.0341 20.1305 14.978 20.1363 14.9216C20.1386 14.9014 20.141 14.8815 20.143 14.8613C20.1506 14.789 20.1577 14.716 20.1643 14.6424C20.1643 14.6218 20.1679 14.6012 20.1694 14.5803C20.1746 14.5211 20.1797 14.4616 20.184 14.4017C20.184 14.3797 20.1876 14.3576 20.1892 14.3355C20.1947 14.2592 20.1998 14.1823 20.2046 14.105C20.2046 14.0874 20.2046 14.0675 20.2073 14.0518C20.2109 13.9875 20.2144 13.9227 20.2172 13.8576C20.2172 13.834 20.2172 13.8104 20.2204 13.7869C20.2235 13.7064 20.2267 13.6256 20.229 13.5436C20.229 13.5324 20.229 13.5208 20.229 13.5092C20.2311 13.4363 20.2327 13.3627 20.2338 13.2884C20.2338 13.264 20.2338 13.2397 20.2338 13.2154C20.2338 13.1356 20.2338 13.0552 20.2338 12.9744V12.9557C20.2338 12.8696 20.2338 12.7824 20.2338 12.6937V12.6189C20.2338 12.544 20.2306 12.4654 20.2286 12.3876V12.3453C20.2259 12.2555 20.2223 12.1645 20.2188 12.0732C20.2188 12.0496 20.2164 12.0257 20.2156 12.0021C20.2122 11.9253 20.2083 11.8479 20.2038 11.7701C20.2038 11.751 20.2038 11.7326 20.2006 11.7121C20.1951 11.6185 20.189 11.5242 20.1825 11.4291L20.1777 11.3629C20.1718 11.2835 20.1659 11.2038 20.1592 11.1234C20.1592 11.1002 20.1556 11.077 20.1536 11.0538C20.1454 10.9565 20.1363 10.858 20.1268 10.7592C20.1268 10.7405 20.1229 10.7218 20.1213 10.7027C20.113 10.6185 20.1039 10.5336 20.0948 10.4479C20.0921 10.422 20.0893 10.3966 20.0861 10.3708C20.0751 10.269 20.0632 10.1668 20.0506 10.0631C20.0506 10.0504 20.0471 10.0377 20.0455 10.0257C20.0342 9.9329 20.0222 9.83959 20.0096 9.74578C20.0056 9.71809 20.0021 9.6904 19.9981 9.6627C19.9834 9.55642 19.9682 9.44926 19.9527 9.34122C18.3737 -1.31499 7.18415 0.414388 7.18415 0.414388L7.54258 2.70401L0.775391 9.48157L1.07106 12.0987L3.63456 13.5956C3.74884 13.3202 3.89556 13.058 4.07194 12.8138C5.72594 11.0051 8.93486 9.58523 9.85344 9.2907C10.0374 9.23195 10.142 9.20238 10.142 9.20238C5.74805 14.5937 6.2478 20.7703 6.4436 22.2425C6.23991 22.2799 6.08241 22.5131 6.08241 22.7975C6.08241 23.1074 6.26912 23.3589 6.49926 23.3589H7.91207C5.56238 24.2914 3.69724 26.0673 2.72387 28.2989C2.72273 28.302 2.72141 28.305 2.71993 28.3079C2.64808 28.4736 2.58124 28.6416 2.5194 28.812C2.5195 28.8137 2.5195 28.8155 2.5194 28.8172C2.50282 28.8636 2.48663 28.9101 2.47084 28.9568C2.46492 28.9737 2.459 28.9905 2.45347 29.0077C2.43926 29.0496 2.4261 29.0919 2.414 29.1346C2.40689 29.1563 2.40018 29.1784 2.39347 29.2001C2.38084 29.2401 2.3686 29.2806 2.35676 29.321L2.33544 29.3958C2.32439 29.4332 2.31334 29.4733 2.30307 29.5122C2.29557 29.5399 2.28847 29.5672 2.28136 29.5949C2.27189 29.6323 2.26202 29.6698 2.25294 29.7072C2.24386 29.7446 2.23517 29.782 2.22649 29.8217C2.21781 29.8614 2.20675 29.9078 2.19728 29.9512H1.63397C1.52565 29.9489 1.41794 29.9672 1.31717 30.0049C1.2164 30.0427 1.12459 30.0991 1.04714 30.1709C0.969684 30.2428 0.908141 30.3286 0.866127 30.4232C0.824113 30.5179 0.802472 30.6196 0.802472 30.7223C0.802472 30.825 0.824113 30.9267 0.866127 31.0214C0.908141 31.1161 0.969684 31.2019 1.04714 31.2737C1.12459 31.3455 1.2164 31.402 1.31717 31.4397C1.41794 31.4774 1.52565 31.4957 1.63397 31.4935H21.5988C21.7071 31.4957 21.8149 31.4774 21.9156 31.4397C22.0164 31.402 22.1082 31.3455 22.1857 31.2737C22.2631 31.2019 22.3247 31.1161 22.3667 31.0214C22.4087 30.9267 22.4303 30.825 22.4303 30.7223C22.4303 30.6196 22.4087 30.5179 22.3667 30.4232C22.3247 30.3286 22.2631 30.2428 22.1857 30.1709C22.1082 30.0991 22.0164 30.0427 21.9156 30.0049C21.8149 29.9672 21.7071 29.9489 21.5988 29.9512L21.5917 29.9445Z" fill="#595653"/>
</svg>
