<svg width="22" height="32" viewBox="0 0 22 32" fill="none" xmlns="http://www.w3.org/2000/svg">
<path d="M20.9784 29.9445H20.4155C20.4155 29.9385 20.4128 29.9325 20.4116 29.9269L20.3962 29.858C20.3863 29.8127 20.3757 29.7678 20.3646 29.7233C20.3599 29.7023 20.3547 29.6814 20.3496 29.6604C20.335 29.6017 20.3196 29.5429 20.3038 29.4841L20.2991 29.4673C20.2817 29.4037 20.2635 29.3403 20.2446 29.2772L20.2256 29.2162C20.2126 29.1728 20.1988 29.1297 20.1862 29.0867C20.1787 29.0631 20.1708 29.0399 20.1633 29.0167C20.1495 28.9752 20.1352 28.9336 20.1206 28.8925C20.1131 28.8708 20.1052 28.8487 20.0977 28.8273C20.0793 28.7757 20.0604 28.7244 20.0409 28.6735C20.0366 28.6627 20.033 28.6522 20.0287 28.6413C20.0058 28.5815 19.9817 28.522 19.9572 28.4625C19.9485 28.4408 19.9395 28.4194 19.9304 28.3981C19.9138 28.3607 19.8972 28.3195 19.8802 28.2806L19.8483 28.2083C19.8317 28.1709 19.8147 28.1335 19.7973 28.0961C19.7867 28.0729 19.7756 28.0493 19.7646 28.0261C19.7444 27.9831 19.7251 27.9404 19.7026 27.8981C19.6943 27.882 19.6868 27.8655 19.6785 27.8491C19.6505 27.7933 19.6217 27.7368 19.5925 27.6829L19.553 27.6129L19.4973 27.5115L19.4539 27.4367C19.4358 27.4052 19.4176 27.3738 19.399 27.3423C19.3844 27.3169 19.3694 27.2914 19.3544 27.2675C19.3339 27.2334 19.315 27.2001 19.2925 27.1665L19.2356 27.0751C19.2088 27.0332 19.1819 26.9909 19.1543 26.9494C19.1369 26.9232 19.1196 26.8974 19.1018 26.8715C19.084 26.8457 19.0647 26.8162 19.0457 26.7888C19.0268 26.7615 19.0063 26.7342 18.9889 26.7073C18.9715 26.6803 18.9526 26.656 18.934 26.6324C18.9155 26.6088 18.8946 26.5774 18.8744 26.5501L18.8188 26.4752C18.7793 26.4255 18.743 26.3757 18.7043 26.3255L18.6502 26.257C18.6273 26.2282 18.6036 26.1998 18.5803 26.1713L18.5282 26.1085C18.5041 26.0796 18.4797 26.0512 18.4552 26.0224L18.4039 25.9633L18.3273 25.8764L18.2819 25.8263C18.1876 25.7226 18.0908 25.6205 17.9918 25.5209L17.9483 25.4771L17.8575 25.3884L17.8129 25.3458C17.7814 25.3154 17.7498 25.2855 17.7178 25.2559L17.685 25.226C17.5733 25.1231 17.4585 25.0228 17.3416 24.9266L17.3096 24.9C17.2736 24.8701 17.2373 24.8405 17.2007 24.8113L17.1644 24.7821C17.1249 24.7522 17.089 24.7226 17.0507 24.6931L17.0313 24.6785C16.9022 24.5797 16.77 24.4835 16.6366 24.3911L16.618 24.378C16.5758 24.3491 16.5336 24.3207 16.4909 24.2926L16.4629 24.2743C16.4195 24.2455 16.3757 24.2174 16.3318 24.1893L16.3243 24.1849C16.1791 24.0928 16.031 24.0046 15.8802 23.9203L15.8743 23.9165C15.8266 23.89 15.7788 23.8641 15.731 23.8383L15.7101 23.8271C15.4559 23.6911 15.1948 23.5664 14.9269 23.4528L14.9103 23.4457C14.8397 23.4158 14.7686 23.387 14.6968 23.3585H16.1096C16.3397 23.3585 16.5265 23.1074 16.5265 22.7972C16.5265 22.4869 16.3397 22.2358 16.1096 22.2358H15.6888C15.7148 22.1729 15.7437 22.1018 15.7748 22.0217C16.1728 21.7867 16.873 21.286 17.5678 20.3661L17.5733 20.359C17.626 20.2901 17.6777 20.2189 17.7285 20.1453L17.7387 20.1307C17.7893 20.0584 17.8398 19.984 17.8895 19.9061L17.9029 19.8855C17.9266 19.8481 17.9503 19.8107 17.974 19.7733C17.974 19.7733 17.974 19.7703 17.9768 19.7684C18.0012 19.731 18.0253 19.6898 18.0494 19.6498L18.0648 19.6239C18.0853 19.5895 18.1062 19.5543 18.1264 19.5188C18.1303 19.5124 18.1343 19.5061 18.1378 19.4993C18.1611 19.4589 18.1844 19.4177 18.2073 19.3762L18.2231 19.3474C18.242 19.3129 18.2606 19.2781 18.2791 19.243C18.2847 19.2332 18.2902 19.2231 18.2953 19.213C18.3174 19.1707 18.3395 19.1281 18.3616 19.0847L18.377 19.0543C18.3944 19.0192 18.4122 18.9832 18.4295 18.9473L18.4485 18.9099C18.4698 18.8657 18.4907 18.8208 18.5116 18.7755L18.5247 18.7467C18.542 18.7093 18.559 18.6719 18.576 18.6344L18.5961 18.5895C18.6159 18.5442 18.6356 18.4986 18.6545 18.4526C18.6581 18.4443 18.6616 18.4357 18.6648 18.4275C18.6826 18.3852 18.6999 18.3422 18.7173 18.2987L18.737 18.2493C18.7532 18.2082 18.7694 18.1666 18.7852 18.1251L18.7971 18.0937C18.8156 18.0443 18.8338 17.9937 18.8519 17.944L18.8709 17.8908C18.8851 17.8512 18.8989 17.8107 18.9127 17.7703C18.9178 17.7553 18.923 17.7404 18.9277 17.7254C18.9451 17.6738 18.9625 17.621 18.9794 17.5682C18.985 17.5499 18.9909 17.5308 18.9964 17.5136L19.0359 17.3905C19.041 17.3725 19.0465 17.353 19.0517 17.3369C19.0678 17.2827 19.084 17.2273 19.0994 17.1715C19.1046 17.1539 19.1093 17.136 19.114 17.118C19.1259 17.075 19.1377 17.0319 19.1492 16.9881C19.1543 16.9683 19.1594 16.9485 19.165 16.9286C19.1796 16.871 19.1942 16.813 19.2084 16.7542L19.2202 16.7052C19.2313 16.6584 19.2423 16.6113 19.253 16.5638L19.2672 16.5001C19.2806 16.4391 19.294 16.3781 19.3067 16.316C19.3094 16.304 19.3118 16.2917 19.3142 16.2786C19.3252 16.2251 19.3359 16.1708 19.3461 16.1165C19.3505 16.0945 19.3544 16.0724 19.3588 16.0503C19.369 15.9945 19.3789 15.938 19.3888 15.8823C19.3908 15.8703 19.3931 15.8587 19.3951 15.8471C19.4061 15.7812 19.4169 15.7148 19.4275 15.648C19.431 15.6255 19.4346 15.6031 19.4377 15.5802C19.446 15.526 19.4539 15.4713 19.4618 15.4159L19.4689 15.3651C19.4784 15.2962 19.4875 15.227 19.4962 15.1566C19.4989 15.1345 19.5013 15.1124 19.504 15.09C19.5109 15.0341 19.5172 14.978 19.523 14.9216C19.5254 14.9014 19.5277 14.8815 19.5297 14.8613C19.5373 14.789 19.5444 14.716 19.551 14.6424C19.551 14.6218 19.5546 14.6012 19.5562 14.5803C19.5613 14.5211 19.5664 14.4616 19.5708 14.4017C19.5708 14.3797 19.5743 14.3576 19.5759 14.3355C19.5814 14.2592 19.5866 14.1823 19.5913 14.105C19.5913 14.0874 19.5913 14.0675 19.594 14.0518C19.5976 13.9875 19.6012 13.9227 19.6039 13.8576C19.6039 13.834 19.6039 13.8104 19.6071 13.7869C19.6102 13.7064 19.6134 13.6256 19.6158 13.5436C19.6158 13.5324 19.6158 13.5208 19.6158 13.5092C19.6179 13.4363 19.6194 13.3627 19.6205 13.2884C19.6205 13.264 19.6205 13.2397 19.6205 13.2154C19.6205 13.1356 19.6205 13.0552 19.6205 12.9744V12.9557C19.6205 12.8696 19.6205 12.7824 19.6205 12.6937V12.6189C19.6205 12.544 19.6173 12.4654 19.6154 12.3876V12.3453C19.6126 12.2555 19.6091 12.1645 19.6055 12.0732C19.6055 12.0496 19.6031 12.0257 19.6023 12.0021C19.5989 11.9253 19.595 11.8479 19.5905 11.7701C19.5905 11.751 19.5905 11.7326 19.5873 11.7121C19.5818 11.6185 19.5758 11.5242 19.5692 11.4291L19.5644 11.3629C19.5585 11.2835 19.5526 11.2038 19.5459 11.1234C19.5459 11.1002 19.5423 11.077 19.5404 11.0538C19.5321 10.9565 19.523 10.858 19.5135 10.7592C19.5135 10.7405 19.5096 10.7218 19.508 10.7027C19.4997 10.6185 19.4906 10.5336 19.4815 10.4479C19.4788 10.422 19.476 10.3966 19.4729 10.3708C19.4618 10.269 19.45 10.1668 19.4373 10.0631C19.4373 10.0504 19.4338 10.0377 19.4322 10.0257C19.4209 9.9329 19.4089 9.83959 19.3963 9.74578C19.3923 9.71809 19.3888 9.6904 19.3848 9.6627C19.3701 9.55642 19.355 9.44926 19.3394 9.34122C17.7604 -1.31499 6.57087 0.414388 6.57087 0.414388L6.9293 2.70401L0.162109 9.48157L0.457776 12.0987L3.02128 13.5956C3.13556 13.3202 3.28228 13.058 3.45866 12.8138C5.11266 11.0051 8.32158 9.58523 9.24016 9.2907C9.42412 9.23195 9.52873 9.20238 9.52873 9.20238C5.13477 14.5937 5.63452 20.7703 5.83032 22.2425C5.62663 22.2799 5.46912 22.5131 5.46912 22.7975C5.46912 23.1074 5.65584 23.3589 5.88598 23.3589H7.29879C4.9491 24.2914 3.08396 26.0673 2.11059 28.2989C2.10945 28.302 2.10813 28.305 2.10665 28.3079C2.0348 28.4736 1.96796 28.6416 1.90611 28.812C1.90622 28.8137 1.90622 28.8155 1.90611 28.8172C1.88954 28.8636 1.87335 28.9101 1.85756 28.9568C1.85164 28.9737 1.84572 28.9905 1.84019 29.0077C1.82598 29.0496 1.81282 29.0919 1.80071 29.1346C1.79361 29.1563 1.7869 29.1784 1.78019 29.2001C1.76756 29.2401 1.75532 29.2806 1.74348 29.321L1.72216 29.3958C1.71111 29.4332 1.70006 29.4733 1.68979 29.5122C1.68229 29.5399 1.67519 29.5672 1.66808 29.5949C1.65861 29.6323 1.64874 29.6698 1.63966 29.7072C1.63058 29.7446 1.62189 29.782 1.61321 29.8217C1.60452 29.8614 1.59347 29.9078 1.584 29.9512H1.02069C0.912367 29.9489 0.80466 29.9672 0.703888 30.0049C0.603115 30.0427 0.51131 30.0991 0.433856 30.1709C0.356403 30.2428 0.29486 30.3286 0.252846 30.4232C0.210832 30.5179 0.189191 30.6196 0.189191 30.7223C0.189191 30.825 0.210832 30.9267 0.252846 31.0214C0.29486 31.1161 0.356403 31.2019 0.433856 31.2737C0.51131 31.3455 0.603115 31.402 0.703888 31.4397C0.80466 31.4774 0.912367 31.4957 1.02069 31.4935H20.9855C21.0939 31.4957 21.2016 31.4774 21.3023 31.4397C21.4031 31.402 21.4949 31.3455 21.5724 31.2737C21.6498 31.2019 21.7114 31.1161 21.7534 31.0214C21.7954 30.9267 21.817 30.825 21.817 30.7223C21.817 30.6196 21.7954 30.5179 21.7534 30.4232C21.7114 30.3286 21.6498 30.2428 21.5724 30.1709C21.4949 30.0991 21.4031 30.0427 21.3023 30.0049C21.2016 29.9672 21.0939 29.9489 20.9855 29.9512L20.9784 29.9445Z" fill="#595653"/>
</svg>
