<svg width="22" height="32" viewBox="0 0 22 32" fill="none" xmlns="http://www.w3.org/2000/svg">
<path d="M20.8163 29.9445H20.2534C20.2534 29.9385 20.2506 29.9325 20.2495 29.9269L20.2341 29.858C20.2242 29.8127 20.2135 29.7678 20.2025 29.7233C20.1978 29.7023 20.1926 29.6814 20.1875 29.6604C20.1729 29.6017 20.1575 29.5429 20.1417 29.4841L20.137 29.4673C20.1196 29.4037 20.1014 29.3403 20.0825 29.2772L20.0635 29.2162C20.0505 29.1728 20.0367 29.1297 20.0241 29.0867C20.0166 29.0631 20.0087 29.0399 20.0012 29.0167C19.9874 28.9752 19.9731 28.9336 19.9585 28.8925C19.951 28.8708 19.9431 28.8487 19.9356 28.8273C19.9172 28.7757 19.8983 28.7244 19.8788 28.6735C19.8745 28.6627 19.8709 28.6522 19.8666 28.6413C19.8437 28.5815 19.8196 28.522 19.7951 28.4625C19.7864 28.4408 19.7773 28.4194 19.7683 28.3981C19.7517 28.3607 19.7351 28.3195 19.7181 28.2806L19.6862 28.2083C19.6696 28.1709 19.6526 28.1335 19.6352 28.0961C19.6246 28.0729 19.6135 28.0493 19.6025 28.0261C19.5823 27.9831 19.563 27.9404 19.5405 27.8981C19.5322 27.882 19.5247 27.8655 19.5164 27.8491C19.4884 27.7933 19.4596 27.7368 19.4304 27.6829L19.3909 27.6129L19.3352 27.5115L19.2918 27.4367C19.2736 27.4052 19.2555 27.3738 19.2369 27.3423C19.2223 27.3169 19.2073 27.2914 19.1923 27.2675C19.1718 27.2334 19.1529 27.2001 19.1303 27.1665L19.0735 27.0751C19.0467 27.0332 19.0198 26.9909 18.9922 26.9494C18.9748 26.9232 18.9575 26.8974 18.9397 26.8715C18.9219 26.8457 18.9026 26.8162 18.8836 26.7888C18.8647 26.7615 18.8442 26.7342 18.8268 26.7073C18.8094 26.6803 18.7905 26.656 18.7719 26.6324C18.7534 26.6088 18.7324 26.5774 18.7123 26.5501L18.6567 26.4752C18.6172 26.4255 18.5809 26.3757 18.5422 26.3255L18.4881 26.257C18.4652 26.2282 18.4415 26.1998 18.4182 26.1713L18.3661 26.1085C18.342 26.0796 18.3176 26.0512 18.2931 26.0224L18.2418 25.9633L18.1652 25.8764L18.1198 25.8263C18.0254 25.7226 17.9287 25.6205 17.8297 25.5209L17.7862 25.4771L17.6954 25.3884L17.6508 25.3458C17.6192 25.3154 17.5877 25.2855 17.5557 25.2559L17.5229 25.226C17.4112 25.1231 17.2963 25.0228 17.1795 24.9266L17.1475 24.9C17.1115 24.8701 17.0752 24.8405 17.0386 24.8113L17.0023 24.7821C16.9628 24.7522 16.9269 24.7226 16.8886 24.6931L16.8692 24.6785C16.7401 24.5797 16.6079 24.4835 16.4745 24.3911L16.4559 24.378C16.4137 24.3491 16.3714 24.3207 16.3288 24.2926L16.3008 24.2743C16.2574 24.2455 16.2135 24.2174 16.1697 24.1893L16.1622 24.1849C16.017 24.0928 15.8689 24.0046 15.7181 23.9203L15.7122 23.9165C15.6645 23.89 15.6167 23.8641 15.5689 23.8383L15.548 23.8271C15.2938 23.6911 15.0327 23.5664 14.7648 23.4528L14.7482 23.4457C14.6776 23.4158 14.6065 23.387 14.5347 23.3585H15.9475C16.1776 23.3585 16.3643 23.1074 16.3643 22.7972C16.3643 22.4869 16.1776 22.2358 15.9475 22.2358H15.5267C15.5527 22.1729 15.5816 22.1018 15.6127 22.0217C16.0106 21.7867 16.7109 21.286 17.4057 20.3661L17.4112 20.359C17.4639 20.2901 17.5156 20.2189 17.5664 20.1453L17.5766 20.1307C17.6271 20.0584 17.6777 19.984 17.7274 19.9061L17.7408 19.8855C17.7645 19.8481 17.7882 19.8107 17.8119 19.7733C17.8119 19.7733 17.8119 19.7703 17.8147 19.7684C17.8391 19.731 17.8632 19.6898 17.8873 19.6498L17.9027 19.6239C17.9232 19.5895 17.9441 19.5543 17.9643 19.5188C17.9682 19.5124 17.9722 19.5061 17.9757 19.4993C17.999 19.4589 18.0223 19.4177 18.0452 19.3762L18.061 19.3474C18.0799 19.3129 18.0985 19.2781 18.117 19.243C18.1226 19.2332 18.1281 19.2231 18.1332 19.213C18.1553 19.1707 18.1774 19.1281 18.1995 19.0847L18.2149 19.0543C18.2323 19.0192 18.2501 18.9832 18.2674 18.9473L18.2864 18.9099C18.3077 18.8657 18.3286 18.8208 18.3495 18.7755L18.3626 18.7467C18.3799 18.7093 18.3969 18.6719 18.4139 18.6344L18.434 18.5895C18.4537 18.5442 18.4735 18.4986 18.4924 18.4526C18.496 18.4443 18.4995 18.4357 18.5027 18.4275C18.5205 18.3852 18.5378 18.3422 18.5552 18.2987L18.5749 18.2493C18.5911 18.2082 18.6073 18.1666 18.6231 18.1251L18.6349 18.0937C18.6535 18.0443 18.6716 17.9937 18.6898 17.944L18.7088 17.8908C18.723 17.8512 18.7368 17.8107 18.7506 17.7703C18.7557 17.7553 18.7609 17.7404 18.7656 17.7254C18.783 17.6738 18.8003 17.621 18.8173 17.5682C18.8228 17.5499 18.8288 17.5308 18.8343 17.5136L18.8738 17.3905C18.8789 17.3725 18.8844 17.353 18.8896 17.3369C18.9057 17.2827 18.9219 17.2273 18.9373 17.1715C18.9424 17.1539 18.9472 17.136 18.9519 17.118C18.9638 17.075 18.9756 17.0319 18.9871 16.9881C18.9922 16.9683 18.9973 16.9485 19.0028 16.9286C19.0175 16.871 19.0321 16.813 19.0463 16.7542L19.0581 16.7052C19.0692 16.6584 19.0802 16.6113 19.0909 16.5638L19.1051 16.5001C19.1185 16.4391 19.1319 16.3781 19.1446 16.316C19.1473 16.304 19.1497 16.2917 19.1521 16.2786C19.1631 16.2251 19.1738 16.1708 19.184 16.1165C19.1884 16.0945 19.1923 16.0724 19.1967 16.0503C19.2069 15.9945 19.2168 15.938 19.2267 15.8823C19.2286 15.8703 19.231 15.8587 19.233 15.8471C19.244 15.7812 19.2548 15.7148 19.2654 15.648C19.2689 15.6255 19.2725 15.6031 19.2756 15.5802C19.2839 15.526 19.2918 15.4713 19.2997 15.4159L19.3068 15.3651C19.3163 15.2962 19.3254 15.227 19.334 15.1566C19.3368 15.1345 19.3392 15.1124 19.3419 15.09C19.3488 15.0341 19.3551 14.978 19.3609 14.9216C19.3633 14.9014 19.3656 14.8815 19.3676 14.8613C19.3752 14.789 19.3823 14.716 19.3889 14.6424C19.3889 14.6218 19.3925 14.6012 19.394 14.5803C19.3992 14.5211 19.4043 14.4616 19.4087 14.4017C19.4087 14.3797 19.4122 14.3576 19.4138 14.3355C19.4193 14.2592 19.4244 14.1823 19.4292 14.105C19.4292 14.0874 19.4292 14.0675 19.4319 14.0518C19.4355 13.9875 19.439 13.9227 19.4418 13.8576C19.4418 13.834 19.4418 13.8104 19.445 13.7869C19.4481 13.7064 19.4513 13.6256 19.4537 13.5436C19.4537 13.5324 19.4537 13.5208 19.4537 13.5092C19.4558 13.4363 19.4573 13.3627 19.4584 13.2884C19.4584 13.264 19.4584 13.2397 19.4584 13.2154C19.4584 13.1356 19.4584 13.0552 19.4584 12.9744V12.9557C19.4584 12.8696 19.4584 12.7824 19.4584 12.6937V12.6189C19.4584 12.544 19.4552 12.4654 19.4533 12.3876V12.3453C19.4505 12.2555 19.4469 12.1645 19.4434 12.0732C19.4434 12.0496 19.441 12.0257 19.4402 12.0021C19.4368 11.9253 19.4329 11.8479 19.4284 11.7701C19.4284 11.751 19.4284 11.7326 19.4252 11.7121C19.4197 11.6185 19.4136 11.5242 19.4071 11.4291L19.4023 11.3629C19.3964 11.2835 19.3905 11.2038 19.3838 11.1234C19.3838 11.1002 19.3802 11.077 19.3783 11.0538C19.37 10.9565 19.3609 10.858 19.3514 10.7592C19.3514 10.7405 19.3475 10.7218 19.3459 10.7027C19.3376 10.6185 19.3285 10.5336 19.3194 10.4479C19.3167 10.422 19.3139 10.3966 19.3108 10.3708C19.2997 10.269 19.2879 10.1668 19.2752 10.0631C19.2752 10.0504 19.2717 10.0377 19.2701 10.0257C19.2588 9.9329 19.2468 9.83959 19.2342 9.74578C19.2302 9.71809 19.2267 9.6904 19.2227 9.6627C19.208 9.55642 19.1929 9.44926 19.1773 9.34122C17.5983 -1.31499 6.40876 0.414388 6.40876 0.414388L6.76719 2.70401L0 9.48157L0.295667 12.0987L2.85917 13.5956C2.97345 13.3202 3.12017 13.058 3.29655 12.8138C4.95055 11.0051 8.15947 9.58523 9.07805 9.2907C9.26201 9.23195 9.36662 9.20238 9.36662 9.20238C4.97266 14.5937 5.47241 20.7703 5.66821 22.2425C5.46452 22.2799 5.30701 22.5131 5.30701 22.7975C5.30701 23.1074 5.49373 23.3589 5.72387 23.3589H7.13668C4.78699 24.2914 2.92185 26.0673 1.94848 28.2989C1.94734 28.302 1.94602 28.305 1.94454 28.3079C1.87269 28.4736 1.80585 28.6416 1.74401 28.812C1.74411 28.8137 1.74411 28.8155 1.74401 28.8172C1.72743 28.8636 1.71124 28.9101 1.69545 28.9568C1.68953 28.9737 1.68361 28.9905 1.67808 29.0077C1.66387 29.0496 1.65071 29.0919 1.63861 29.1346C1.6315 29.1563 1.62479 29.1784 1.61808 29.2001C1.60545 29.2401 1.59321 29.2806 1.58137 29.321L1.56005 29.3958C1.549 29.4332 1.53795 29.4733 1.52768 29.5122C1.52018 29.5399 1.51308 29.5672 1.50597 29.5949C1.4965 29.6323 1.48663 29.6698 1.47755 29.7072C1.46847 29.7446 1.45978 29.782 1.4511 29.8217C1.44242 29.8614 1.43136 29.9078 1.42189 29.9512H0.85858C0.750258 29.9489 0.642551 29.9672 0.541778 30.0049C0.441006 30.0427 0.3492 30.0991 0.271747 30.1709C0.194294 30.2428 0.13275 30.3286 0.0907365 30.4232C0.0487226 30.5179 0.0270812 30.6196 0.0270812 30.7223C0.0270812 30.825 0.0487226 30.9267 0.0907365 31.0214C0.13275 31.1161 0.194294 31.2019 0.271747 31.2737C0.3492 31.3455 0.441006 31.402 0.541778 31.4397C0.642551 31.4774 0.750258 31.4957 0.85858 31.4935H20.8234C20.9318 31.4957 21.0395 31.4774 21.1402 31.4397C21.241 31.402 21.3328 31.3455 21.4103 31.2737C21.4877 31.2019 21.5493 31.1161 21.5913 31.0214C21.6333 30.9267 21.6549 30.825 21.6549 30.7223C21.6549 30.6196 21.6333 30.5179 21.5913 30.4232C21.5493 30.3286 21.4877 30.2428 21.4103 30.1709C21.3328 30.0991 21.241 30.0427 21.1402 30.0049C21.0395 29.9672 20.9318 29.9489 20.8234 29.9512L20.8163 29.9445Z" fill="#595653"/>
</svg>
